<svg width="79" height="16" viewBox="0 0 79 16" fill="none" xmlns="http://www.w3.org/2000/svg">
    <g clip-path="url(#clip0)">
        <path d="M29.8695 10.3796C29.7153 9.28869 29.22 8.68866 28.2604 8.36672V8.32006C29.5452 7.87494 30.1796 6.93712 30.1796 5.66242C30.1796 3.61879 28.5085 2.49713 26.3111 2.49713H21.0148V4.6434H25.875C26.9267 4.6434 27.453 5.21263 27.453 6.01142C27.453 6.841 26.8957 7.34771 25.8129 7.34771H21.0148V13.4786H23.7546V9.36521H25.4135C26.5893 9.36521 27.1156 9.91857 27.2547 10.9329C27.4248 12.0229 27.3788 13.3134 27.673 13.4832H30.3338V13.3442C29.9475 13.2061 30.1026 11.8241 29.8695 10.3796Z" fill="white"/>
        <path d="M-1.22809e-05 8.03079C-1.22809e-05 4.76472 2.14856 2.28998 5.44191 2.28998C6.72485 2.28998 7.80666 2.66324 8.59522 3.25673C9.5539 3.979 10.1103 5.05307 10.2494 6.28111H7.51341C7.37431 5.29849 6.60079 4.54637 5.42593 4.54637C3.63264 4.54637 2.7811 6.03569 2.7811 8.03079C2.7811 10.0418 3.80087 11.4994 5.44003 11.4994C6.66188 11.4994 7.46548 10.7323 7.5886 9.67316H10.3246C10.2471 10.7405 9.77353 11.7413 8.99561 12.482C8.14971 13.2948 7.01621 13.7249 5.45507 13.7249C2.20871 13.7249 -0.00189209 11.3155 -0.00189209 8.03266" fill="white"/>
        <path d="M11.3002 2.49713H19.6877V4.74045H14.0391V6.70756H18.8832V8.82771H14.0391V11.1793H19.7808V13.4833H11.3002V2.49713Z" fill="white"/>
        <path d="M50.1296 2.43463V11.1662V13.4842H52.8853H56.2858L57.2276 11.1662H52.8853V2.43463H50.1296Z" fill="white"/>
        <path d="M61.7221 9.15247L63.1057 5.34423H63.1386L66.1706 13.4842H68.9132L64.6687 2.43463H61.6742L57.4457 13.4842H60.1488L61.7221 9.15247Z" fill="white"/>
        <path d="M78.5357 10.3637C78.3806 9.26629 77.8778 8.6644 76.9173 8.33966V8.293C78.2087 7.84415 78.8478 6.90166 78.8478 5.6195C78.8478 3.56654 77.1663 2.43555 74.9557 2.43555H69.6294V4.59768H74.5168C75.576 4.59768 76.1052 5.16878 76.1052 5.97223C76.1052 6.81208 75.5413 7.31785 74.4548 7.31785H69.6294V13.4851H72.3851V9.34188H74.0506C75.233 9.34188 75.7621 9.90178 75.9022 10.9189C76.0742 12.0154 76.0272 13.3134 76.3223 13.4842H79V13.3442C78.6109 13.2061 78.7669 11.8148 78.5301 10.3581" fill="white"/>
        <path d="M47.9717 7.99904C47.9707 6.34854 47.4554 4.73877 46.4964 3.39055C45.5375 2.04233 44.1819 1.02172 42.6156 0.468727C41.0493 -0.0842679 39.349 -0.142556 37.748 0.301858C36.147 0.746272 34.7238 1.67162 33.6734 2.95095C32.6231 4.23029 31.9972 5.80094 31.8816 7.44744C31.7659 9.09395 32.1663 10.7356 33.0276 12.1473C33.8889 13.559 35.1691 14.6715 36.6925 15.3322C38.2159 15.9929 39.9078 16.1694 41.5363 15.8376L38.5597 12.8832C37.5396 12.605 36.6319 12.0189 35.962 11.206C35.2922 10.3931 34.8934 9.39366 34.8207 8.34587C34.7481 7.29807 35.0053 6.25377 35.5567 5.35745C36.108 4.46112 36.9263 3.7571 37.8984 3.34278C38.8704 2.92845 39.9482 2.82432 40.9824 3.04479C42.0167 3.26525 42.9564 3.79941 43.6715 4.57336C44.3866 5.34732 44.8417 6.32279 44.9739 7.36483C45.1062 8.40687 44.9089 9.46395 44.4095 10.3898L42.7102 8.70171L40.6208 10.7724L45.7498 15.8693L47.8391 13.7949L46.5599 12.5249C47.4825 11.1936 47.9749 9.61498 47.9717 7.99904Z" fill="url(#paint0_linear)"/>
    </g>
    <defs>
        <linearGradient id="paint0_linear" x1="31.8564" y1="7.99904" x2="47.9717" y2="7.99904" gradientUnits="userSpaceOnUse">
            <stop stop-color="#59EC92"/>
            <stop offset="0.16" stop-color="#57E798"/>
            <stop offset="0.37" stop-color="#53D8A7"/>
            <stop offset="0.61" stop-color="#4CBFC1"/>
            <stop offset="0.85" stop-color="#429CE5"/>
            <stop offset="1" stop-color="#3B85FE"/>
        </linearGradient>
        <clipPath id="clip0">
            <rect width="79" height="16" fill="white"/>
        </clipPath>
    </defs>
</svg>
